<svg width="144" height="36" viewBox="0 0 144 36" fill="none" xmlns="http://www.w3.org/2000/svg">
<path d="M17.9779 6C21.3345 6 24.1924 7.17187 26.5493 9.5145C27.6773 10.6429 28.5349 11.9325 29.1206 13.3823C29.706 14.8324 29.9996 16.3714 29.9996 18C29.9996 19.6429 29.7098 21.1823 29.1319 22.6174C28.5533 24.0529 27.6994 25.3211 26.5714 26.421C25.4003 27.5779 24.0716 28.464 22.5855 29.0783C21.1001 29.6925 19.5641 29.9996 17.9786 29.9996C16.3931 29.9996 14.8751 29.6966 13.425 29.0888C11.9753 28.482 10.6751 27.6034 9.525 26.4536C8.37488 25.3039 7.5 24.0071 6.9 22.5641C6.3 21.1211 6 19.6001 6 18C6 16.4141 6.30338 14.8894 6.9105 13.425C7.51763 11.9606 8.4 10.65 9.55688 9.49275C11.8425 7.16475 14.6494 6 17.9779 6ZM18.0214 8.1645C15.2786 8.1645 12.9713 9.12188 11.0996 11.0359C10.1565 11.9933 9.43163 13.068 8.92463 14.2609C8.41688 15.4538 8.16375 16.7003 8.16375 18.0004C8.16375 19.2863 8.41688 20.5256 8.92463 21.7178C9.432 22.9114 10.1565 23.9756 11.0996 24.9113C12.0424 25.8473 13.1063 26.5609 14.2928 27.0544C15.4781 27.5471 16.7213 27.7935 18.0214 27.7935C19.3069 27.7935 20.5526 27.5441 21.7613 27.0439C22.9684 26.5433 24.0566 25.8225 25.0286 24.8798C26.8999 23.0513 27.8351 20.7585 27.8351 18.0008C27.8351 16.6721 27.5921 15.4151 27.1065 14.2294C26.6216 13.0436 25.914 11.9869 24.9863 11.0576C23.0565 9.129 20.7356 8.1645 18.0214 8.1645ZM17.871 16.0076L16.2634 16.8435C16.0916 16.4869 15.8813 16.2364 15.6315 16.0935C15.3814 15.951 15.1493 15.8794 14.9348 15.8794C13.8638 15.8794 13.3275 16.5863 13.3275 18.0008C13.3275 18.6435 13.4633 19.1573 13.7344 19.5431C14.0059 19.929 14.406 20.1221 14.9348 20.1221C15.6349 20.1221 16.1276 19.779 16.4138 19.0935L17.892 19.8435C17.5778 20.4296 17.142 20.8901 16.5848 21.2258C16.0283 21.5618 15.4136 21.7294 14.742 21.7294C13.6706 21.7294 12.8059 21.4013 12.1489 20.7435C11.4919 20.0865 11.1634 19.1723 11.1634 18.0011C11.1634 16.8581 11.4956 15.9514 12.1598 15.2798C12.8239 14.6085 13.6631 14.2725 14.6779 14.2725C16.164 14.2718 17.2279 14.8504 17.871 16.0076ZM24.7924 16.0076L23.2065 16.8435C23.0351 16.4869 22.824 16.2364 22.5743 16.0935C22.3238 15.951 22.0841 15.8794 21.8565 15.8794C20.7851 15.8794 20.2489 16.5863 20.2489 18.0008C20.2489 18.6435 20.385 19.1573 20.6561 19.5431C20.9273 19.929 21.327 20.1221 21.8565 20.1221C22.5559 20.1221 23.049 19.779 23.3344 19.0935L24.8344 19.8435C24.5063 20.4296 24.063 20.8901 23.5065 21.2258C22.9493 21.5618 22.3421 21.7294 21.6851 21.7294C20.5991 21.7294 19.7318 21.4013 19.0823 20.7435C18.4313 20.0865 18.1065 19.1723 18.1065 18.0011C18.1065 16.8581 18.4384 15.9514 19.1033 15.2798C19.767 14.6085 20.6063 14.2725 21.6206 14.2725C23.1064 14.2718 24.1643 14.8504 24.7924 16.0076Z" fill="#4D4F51"/>
<path d="M42.2588 23C45.1395 23 46.7645 21.2088 46.7645 18.2543C46.7645 15.3182 45.1395 13.5455 42.3881 13.5455H39.3412V23H42.2588ZM40.4861 21.9844V14.5611H42.3142C44.5301 14.5611 45.6565 15.9645 45.6565 18.2543C45.6565 20.5625 44.5301 21.9844 42.1849 21.9844H40.4861ZM51.5102 23.1477C52.9506 23.1477 54.0031 22.4276 54.3355 21.3565L53.2829 21.0611C53.0059 21.7997 52.3643 22.169 51.5102 22.169C50.2314 22.169 49.3497 21.3427 49.2989 19.8239H54.4463V19.3622C54.4463 16.7216 52.8767 15.8168 51.3994 15.8168C49.479 15.8168 48.2048 17.331 48.2048 19.5099C48.2048 21.6889 49.4605 23.1477 51.5102 23.1477ZM49.2989 18.8821C49.3728 17.7788 50.153 16.7955 51.3994 16.7955C52.5812 16.7955 53.3383 17.6818 53.3383 18.8821H49.2989ZM61.1263 17.4972C60.7847 16.4908 60.0184 15.8168 58.615 15.8168C57.1192 15.8168 56.0113 16.6662 56.0113 17.8665C56.0113 18.8452 56.593 19.5007 57.8948 19.8054L59.0766 20.0824C59.7922 20.2486 60.1292 20.5902 60.1292 21.0795C60.1292 21.6889 59.4829 22.1875 58.4672 22.1875C57.5763 22.1875 57.0177 21.8043 56.8238 21.0426L55.7897 21.3011C56.0436 22.506 57.0361 23.1477 58.4857 23.1477C60.1338 23.1477 61.2556 22.2475 61.2556 21.0241C61.2556 20.0362 60.637 19.413 59.3721 19.1037L58.3195 18.8452C57.4793 18.6374 57.1008 18.3558 57.1008 17.8111C57.1008 17.2017 57.7471 16.7585 58.615 16.7585C59.566 16.7585 59.9584 17.2848 60.1476 17.7741L61.1263 17.4972ZM62.8956 23H63.9851V15.9091H62.8956V23ZM63.4496 14.7273C63.8743 14.7273 64.2251 14.3949 64.2251 13.9886C64.2251 13.5824 63.8743 13.25 63.4496 13.25C63.0249 13.25 62.674 13.5824 62.674 13.9886C62.674 14.3949 63.0249 14.7273 63.4496 14.7273ZM68.8428 25.8068C70.5416 25.8068 71.9081 25.0312 71.9081 23.2031V15.9091H70.8556V17.0355H70.7448C70.5047 16.6662 70.0615 15.8168 68.6766 15.8168C66.8854 15.8168 65.6482 17.2386 65.6482 19.4176C65.6482 21.6335 66.9408 22.8892 68.6581 22.8892C70.0431 22.8892 70.4862 22.0767 70.7263 21.6889H70.8186V23.1293C70.8186 24.3111 69.9877 24.8466 68.8428 24.8466C67.5548 24.8466 67.1024 24.168 66.8115 23.7756L65.9436 24.3849C66.3868 25.1282 67.2593 25.8068 68.8428 25.8068ZM68.8058 21.9105C67.4394 21.9105 66.7377 20.8764 66.7377 19.3991C66.7377 17.9588 67.4209 16.7955 68.8058 16.7955C70.1354 16.7955 70.8371 17.8665 70.8371 19.3991C70.8371 20.9688 70.1169 21.9105 68.8058 21.9105ZM74.9919 18.7344C74.9919 17.4972 75.7583 16.7955 76.8016 16.7955C77.8126 16.7955 78.4266 17.4556 78.4266 18.5682V23H79.5161V18.4943C79.5161 16.6847 78.5512 15.8168 77.1155 15.8168C76.0445 15.8168 75.3797 16.2969 75.0473 17.017H74.955V15.9091H73.9024V23H74.9919V18.7344ZM87.2498 23.1662C88.487 23.1662 89.1333 22.5014 89.3549 22.0398H89.4103V23H90.4998V18.3281C90.4998 16.0753 88.7825 15.8168 87.8777 15.8168C86.8066 15.8168 85.5879 16.1861 85.0339 17.4787L86.068 17.848C86.3081 17.331 86.8759 16.777 87.9146 16.777C88.9164 16.777 89.4103 17.3079 89.4103 18.2173V18.2543C89.4103 18.7805 88.8748 18.7344 87.5822 18.9006C86.2665 19.0714 84.8308 19.3622 84.8308 20.9872C84.8308 22.3722 85.9018 23.1662 87.2498 23.1662ZM87.416 22.1875C86.5481 22.1875 85.9203 21.7997 85.9203 21.0426C85.9203 20.2116 86.6774 19.9531 87.5268 19.8423C87.9885 19.7869 89.2257 19.6577 89.4103 19.4361V20.4332C89.4103 21.3196 88.7086 22.1875 87.416 22.1875ZM98.0328 15.9091H96.8509L94.8936 21.5597H94.8197L92.8623 15.9091H91.6805L94.3026 23H95.4106L98.0328 15.9091ZM101.342 23.1662C102.579 23.1662 103.225 22.5014 103.447 22.0398H103.502V23H104.592V18.3281C104.592 16.0753 102.874 15.8168 101.969 15.8168C100.898 15.8168 99.6797 16.1861 99.1257 17.4787L100.16 17.848C100.4 17.331 100.968 16.777 102.006 16.777C103.008 16.777 103.502 17.3079 103.502 18.2173V18.2543C103.502 18.7805 102.967 18.7344 101.674 18.9006C100.358 19.0714 98.9226 19.3622 98.9226 20.9872C98.9226 22.3722 99.9936 23.1662 101.342 23.1662ZM101.508 22.1875C100.64 22.1875 100.012 21.7997 100.012 21.0426C100.012 20.2116 100.769 19.9531 101.619 19.8423C102.08 19.7869 103.317 19.6577 103.502 19.4361V20.4332C103.502 21.3196 102.8 22.1875 101.508 22.1875ZM106.58 23H107.67V15.9091H106.58V23ZM107.134 14.7273C107.559 14.7273 107.91 14.3949 107.91 13.9886C107.91 13.5824 107.559 13.25 107.134 13.25C106.709 13.25 106.359 13.5824 106.359 13.9886C106.359 14.3949 106.709 14.7273 107.134 14.7273ZM110.755 13.5455H109.665V23H110.755V13.5455ZM114.837 23.1662C116.074 23.1662 116.72 22.5014 116.942 22.0398H116.997V23H118.087V18.3281C118.087 16.0753 116.369 15.8168 115.465 15.8168C114.394 15.8168 113.175 16.1861 112.621 17.4787L113.655 17.848C113.895 17.331 114.463 16.777 115.502 16.777C116.503 16.777 116.997 17.3079 116.997 18.2173V18.2543C116.997 18.7805 116.462 18.7344 115.169 18.9006C113.853 19.0714 112.418 19.3622 112.418 20.9872C112.418 22.3722 113.489 23.1662 114.837 23.1662ZM115.003 22.1875C114.135 22.1875 113.507 21.7997 113.507 21.0426C113.507 20.2116 114.264 19.9531 115.114 19.8423C115.575 19.7869 116.813 19.6577 116.997 19.4361V20.4332C116.997 21.3196 116.296 22.1875 115.003 22.1875ZM120.223 23H121.276V21.9105H121.405C121.645 22.2983 122.107 23.1477 123.473 23.1477C125.246 23.1477 126.483 21.7259 126.483 19.473C126.483 17.2386 125.246 15.8168 123.455 15.8168C122.07 15.8168 121.645 16.6662 121.405 17.0355H121.312V13.5455H120.223V23ZM121.294 19.4545C121.294 17.8665 121.996 16.7955 123.325 16.7955C124.71 16.7955 125.393 17.9588 125.393 19.4545C125.393 20.9688 124.692 22.169 123.325 22.169C122.014 22.169 121.294 21.0611 121.294 19.4545ZM129.239 13.5455H128.15V23H129.239V13.5455ZM134.207 23.1477C135.648 23.1477 136.7 22.4276 137.033 21.3565L135.98 21.0611C135.703 21.7997 135.062 22.169 134.207 22.169C132.929 22.169 132.047 21.3427 131.996 19.8239H137.144V19.3622C137.144 16.7216 135.574 15.8168 134.097 15.8168C132.176 15.8168 130.902 17.331 130.902 19.5099C130.902 21.6889 132.158 23.1477 134.207 23.1477ZM131.996 18.8821C132.07 17.7788 132.85 16.7955 134.097 16.7955C135.278 16.7955 136.036 17.6818 136.036 18.8821H131.996Z" fill="#4D4F51"/>
<path d="M38.1963 25.5852H137.808V26.4716H38.1963V25.5852Z" fill="#4D4F51"/>
</svg>
