<svg width="32" height="32" viewBox="0 0 32 32" fill="none" xmlns="http://www.w3.org/2000/svg">
<circle cx="16" cy="16" r="16" fill="#B2E080"/>
<path d="M5.96 22V10.8H9.664C10.4373 10.8 11.1627 10.9467 11.84 11.24C12.5173 11.528 13.112 11.9307 13.624 12.448C14.136 12.96 14.536 13.5547 14.824 14.232C15.1173 14.904 15.264 15.6267 15.264 16.4C15.264 17.1733 15.1173 17.8987 14.824 18.576C14.536 19.248 14.136 19.8427 13.624 20.36C13.112 20.872 12.5173 21.2747 11.84 21.568C11.1627 21.856 10.4373 22 9.664 22H5.96ZM7.304 20.656H9.664C10.2507 20.656 10.8 20.5467 11.312 20.328C11.8293 20.1093 12.2827 19.8053 12.672 19.416C13.0613 19.0213 13.3653 18.568 13.584 18.056C13.808 17.5387 13.92 16.9867 13.92 16.4C13.92 15.8133 13.808 15.264 13.584 14.752C13.3653 14.2347 13.0587 13.7813 12.664 13.392C12.2747 13.0027 11.824 12.6987 11.312 12.48C10.8 12.256 10.2507 12.144 9.664 12.144H7.304V20.656Z" fill="#113275"/>
<path d="M5.96 22H5.86V22.1H5.96V22ZM5.96 10.8V10.7H5.86V10.8H5.96ZM11.84 11.24L11.8003 11.3318L11.8009 11.332L11.84 11.24ZM13.624 12.448L13.5529 12.5183L13.5533 12.5187L13.624 12.448ZM14.824 14.232L14.732 14.2711L14.7324 14.272L14.824 14.232ZM14.824 18.576L14.7322 18.5363L14.7321 18.5366L14.824 18.576ZM13.624 20.36L13.6947 20.4307L13.6951 20.4303L13.624 20.36ZM11.84 21.568L11.8791 21.66L11.8797 21.6598L11.84 21.568ZM7.304 20.656H7.204V20.756H7.304V20.656ZM11.312 20.328L11.2731 20.2359L11.2727 20.236L11.312 20.328ZM12.672 19.416L12.7427 19.4867L12.7432 19.4862L12.672 19.416ZM13.584 18.056L13.4922 18.0163L13.492 18.0167L13.584 18.056ZM13.584 14.752L13.4919 14.7909L13.4924 14.7921L13.584 14.752ZM12.664 13.392L12.5933 13.4627L12.5938 13.4632L12.664 13.392ZM11.312 12.48L11.2719 12.5716L11.2727 12.572L11.312 12.48ZM7.304 12.144V12.044H7.204V12.144H7.304ZM6.06 22V10.8H5.86V22H6.06ZM5.96 10.9H9.664V10.7H5.96V10.9ZM9.664 10.9C10.4243 10.9 11.1361 11.0441 11.8003 11.3318L11.8797 11.1482C11.1893 10.8492 10.4503 10.7 9.664 10.7V10.9ZM11.8009 11.332C12.4664 11.615 13.0502 12.0104 13.5529 12.5183L13.6951 12.3777C13.1738 11.851 12.5683 11.441 11.8791 11.148L11.8009 11.332ZM13.5533 12.5187C14.0561 13.0215 14.4489 13.6054 14.732 14.2711L14.916 14.1929C14.6231 13.5039 14.2159 12.8985 13.6947 12.3773L13.5533 12.5187ZM14.7324 14.272C15.0199 14.9307 15.164 15.6397 15.164 16.4H15.364C15.364 15.6137 15.2148 14.8773 14.9156 14.192L14.7324 14.272ZM15.164 16.4C15.164 17.1603 15.0199 17.8721 14.7322 18.5363L14.9158 18.6157C15.2148 17.9253 15.364 17.1863 15.364 16.4H15.164ZM14.7321 18.5366C14.449 19.1971 14.0561 19.7813 13.5529 20.2897L13.6951 20.4303C14.2159 19.9041 14.623 19.2989 14.9159 18.6154L14.7321 18.5366ZM13.5533 20.2893C13.0504 20.7922 12.4663 21.1878 11.8003 21.4762L11.8797 21.6598C12.5684 21.3615 13.1736 20.9518 13.6947 20.4307L13.5533 20.2893ZM11.8009 21.476C11.1365 21.7584 10.4246 21.9 9.664 21.9V22.1C10.4501 22.1 11.1888 21.9536 11.8791 21.66L11.8009 21.476ZM9.664 21.9H5.96V22.1H9.664V21.9ZM7.304 20.756H9.664V20.556H7.304V20.756ZM9.664 20.756C10.2634 20.756 10.8262 20.6442 11.3513 20.42L11.2727 20.236C10.7738 20.4491 10.2379 20.556 9.664 20.556V20.756ZM11.3509 20.4201C11.8799 20.1965 12.3441 19.8853 12.7427 19.4867L12.6013 19.3453C12.2213 19.7253 11.7788 20.0221 11.2731 20.2359L11.3509 20.4201ZM12.7432 19.4862C13.1414 19.0826 13.4524 18.6188 13.676 18.0953L13.492 18.0167C13.2783 18.5172 12.9813 18.9601 12.6008 19.3458L12.7432 19.4862ZM13.6758 18.0957C13.9054 17.5653 14.02 16.9998 14.02 16.4H13.82C13.82 16.9736 13.7106 17.512 13.4922 18.0163L13.6758 18.0957ZM14.02 16.4C14.02 15.8002 13.9054 15.2372 13.6756 14.7119L13.4924 14.7921C13.7106 15.2908 13.82 15.8264 13.82 16.4H14.02ZM13.6761 14.7131C13.4524 14.1838 13.1384 13.7195 12.7342 13.3208L12.5938 13.4632C12.979 13.8432 13.2783 14.2855 13.4919 14.7909L13.6761 14.7131ZM12.7347 13.3213C12.3362 12.9228 11.8749 12.6117 11.3513 12.388L11.2727 12.572C11.7731 12.7857 12.2131 13.0825 12.5933 13.4627L12.7347 13.3213ZM11.3521 12.3884C10.8268 12.1586 10.2638 12.044 9.664 12.044V12.244C10.2376 12.244 10.7732 12.3534 11.2719 12.5716L11.3521 12.3884ZM9.664 12.044H7.304V12.244H9.664V12.044ZM7.204 12.144V20.656H7.404V12.144H7.204Z" fill="#113275"/>
<path d="M17.2 22V10.8H18.544V22H17.2Z" fill="#113275"/>
<path d="M17.2 22H17.1V22.1H17.2V22ZM17.2 10.8V10.7H17.1V10.8H17.2ZM18.544 10.8H18.644V10.7H18.544V10.8ZM18.544 22V22.1H18.644V22H18.544ZM17.3 22V10.8H17.1V22H17.3ZM17.2 10.9H18.544V10.7H17.2V10.9ZM18.444 10.8V22H18.644V10.8H18.444ZM18.544 21.9H17.2V22.1H18.544V21.9Z" fill="#113275"/>
<path d="M20.96 22V10.8H27.528V12.144H22.304V15.328H26.76V16.672H22.304V22H20.96Z" fill="#113275"/>
<path d="M20.96 22H20.86V22.1H20.96V22ZM20.96 10.8V10.7H20.86V10.8H20.96ZM27.528 10.8H27.628V10.7H27.528V10.8ZM27.528 12.144V12.244H27.628V12.144H27.528ZM22.304 12.144V12.044H22.204V12.144H22.304ZM22.304 15.328H22.204V15.428H22.304V15.328ZM26.76 15.328H26.86V15.228H26.76V15.328ZM26.76 16.672V16.772H26.86V16.672H26.76ZM22.304 16.672V16.572H22.204V16.672H22.304ZM22.304 22V22.1H22.404V22H22.304ZM21.06 22V10.8H20.86V22H21.06ZM20.96 10.9H27.528V10.7H20.96V10.9ZM27.428 10.8V12.144H27.628V10.8H27.428ZM27.528 12.044H22.304V12.244H27.528V12.044ZM22.204 12.144V15.328H22.404V12.144H22.204ZM22.304 15.428H26.76V15.228H22.304V15.428ZM26.66 15.328V16.672H26.86V15.328H26.66ZM26.76 16.572H22.304V16.772H26.76V16.572ZM22.204 16.672V22H22.404V16.672H22.204ZM22.304 21.9H20.96V22.1H22.304V21.9Z" fill="#113275"/>
</svg>
