<svg width="32" height="32" viewBox="0 0 32 32" fill="none" xmlns="http://www.w3.org/2000/svg">
<circle cx="16" cy="16" r="16" fill="#B2E080" fill-opacity="0.4"/>
<path d="M5.96 22V10.8H9.664C10.4373 10.8 11.1627 10.9467 11.84 11.24C12.5173 11.528 13.112 11.9307 13.624 12.448C14.136 12.96 14.536 13.5547 14.824 14.232C15.1173 14.904 15.264 15.6267 15.264 16.4C15.264 17.1733 15.1173 17.8987 14.824 18.576C14.536 19.248 14.136 19.8427 13.624 20.36C13.112 20.872 12.5173 21.2747 11.84 21.568C11.1627 21.856 10.4373 22 9.664 22H5.96ZM7.304 20.656H9.664C10.2507 20.656 10.8 20.5467 11.312 20.328C11.8293 20.1093 12.2827 19.8053 12.672 19.416C13.0613 19.0213 13.3653 18.568 13.584 18.056C13.808 17.5387 13.92 16.9867 13.92 16.4C13.92 15.8133 13.808 15.264 13.584 14.752C13.3653 14.2347 13.0587 13.7813 12.664 13.392C12.2747 13.0027 11.824 12.6987 11.312 12.48C10.8 12.256 10.2507 12.144 9.664 12.144H7.304V20.656Z" fill="#050505"/>
<path d="M17.2 22V10.8H18.544V22H17.2Z" fill="#050505"/>
<path d="M20.96 22V10.8H27.528V12.144H22.304V15.328H26.76V16.672H22.304V22H20.96Z" fill="#113275"/>
</svg>
